<svg xmlns="http://www.w3.org/2000/svg" width="820" height="307" viewBox="0 0 820 307" role="img" aria-label="GitHub activity for Param077s">
<style>
  .bg   { fill:#ffffff; stroke:#d1d9e0; }
  .name { fill:#1f2328; font:600 15px ui-monospace,SFMono-Regular,Menlo,monospace; }
  .sub  { fill:#59636e; font:400 11px ui-monospace,SFMono-Regular,Menlo,monospace; }
  .num  { fill:#1f2328; font:600 21px ui-monospace,SFMono-Regular,Menlo,monospace; }
  .key  { fill:#59636e; font:400 10px ui-monospace,SFMono-Regular,Menlo,monospace; letter-spacing:.06em; }
  .lang { fill:#59636e; font:400 11px ui-monospace,SFMono-Regular,Menlo,monospace; }
  .l0 { fill:#ebedf0; } .l1 { fill:#9be9a8; } .l2 { fill:#40c463; }
  .l3 { fill:#30a14e; } .l4 { fill:#216e39; }
  @media (prefers-color-scheme: dark) {
    .bg   { fill:#0d1117; stroke:#3d444d; }
    .name, .num { fill:#f0f6fc; }
    .sub, .key, .lang { fill:#9198a1; }
    .l0 { fill:#151b23; } .l1 { fill:#033a16; } .l2 { fill:#196c2e; }
    .l3 { fill:#2ea043; } .l4 { fill:#56d364; }
  }
</style>
<rect class="bg" x="0.5" y="0.5" width="819" height="306" rx="12" stroke-width="1"/>
<text x="24" y="34" class="name">Param077s</text>
<text x="24" y="52" class="sub">contributions in the last year</text>
<text x="24" y="72" class="num">406</text><text x="24" y="92" class="key">TOTAL</text>
<text x="174" y="72" class="num">346</text><text x="174" y="92" class="key">COMMITS</text>
<text x="324" y="72" class="num">52</text><text x="324" y="92" class="key">PULL REQUESTS</text>
<text x="504" y="72" class="num">0</text><text x="504" y="92" class="key">ISSUES</text>
<text x="634" y="72" class="num">0</text><text x="634" y="92" class="key">STARS</text>
<rect x="24" y="128" width="11" height="11" rx="2" class="l0"><title>2025-08-17: 0</title></rect>
<rect x="24" y="141" width="11" height="11" rx="2" class="l0"><title>2025-08-18: 0</title></rect>
<rect x="24" y="154" width="11" height="11" rx="2" class="l0"><title>2025-08-19: 0</title></rect>
<rect x="24" y="167" width="11" height="11" rx="2" class="l0"><title>2025-08-20: 0</title></rect>
<rect x="24" y="180" width="11" height="11" rx="2" class="l0"><title>2025-08-21: 0</title></rect>
<rect x="24" y="193" width="11" height="11" rx="2" class="l0"><title>2025-08-22: 0</title></rect>
<rect x="24" y="206" width="11" height="11" rx="2" class="l0"><title>2025-08-23: 0</title></rect>
<rect x="37" y="128" width="11" height="11" rx="2" class="l0"><title>2025-08-24: 0</title></rect>
<rect x="37" y="141" width="11" height="11" rx="2" class="l0"><title>2025-08-25: 0</title></rect>
<rect x="37" y="154" width="11" height="11" rx="2" class="l0"><title>2025-08-26: 0</title></rect>
<rect x="37" y="167" width="11" height="11" rx="2" class="l0"><title>2025-08-27: 0</title></rect>
<rect x="37" y="180" width="11" height="11" rx="2" class="l0"><title>2025-08-28: 0</title></rect>
<rect x="37" y="193" width="11" height="11" rx="2" class="l0"><title>2025-08-29: 0</title></rect>
<rect x="37" y="206" width="11" height="11" rx="2" class="l0"><title>2025-08-30: 0</title></rect>
<rect x="50" y="128" width="11" height="11" rx="2" class="l0"><title>2025-08-31: 0</title></rect>
<rect x="50" y="141" width="11" height="11" rx="2" class="l0"><title>2025-09-01: 0</title></rect>
<rect x="50" y="154" width="11" height="11" rx="2" class="l0"><title>2025-09-02: 0</title></rect>
<rect x="50" y="167" width="11" height="11" rx="2" class="l0"><title>2025-09-03: 0</title></rect>
<rect x="50" y="180" width="11" height="11" rx="2" class="l0"><title>2025-09-04: 0</title></rect>
<rect x="50" y="193" width="11" height="11" rx="2" class="l0"><title>2025-09-05: 0</title></rect>
<rect x="50" y="206" width="11" height="11" rx="2" class="l0"><title>2025-09-06: 0</title></rect>
<rect x="63" y="128" width="11" height="11" rx="2" class="l0"><title>2025-09-07: 0</title></rect>
<rect x="63" y="141" width="11" height="11" rx="2" class="l0"><title>2025-09-08: 0</title></rect>
<rect x="63" y="154" width="11" height="11" rx="2" class="l0"><title>2025-09-09: 0</title></rect>
<rect x="63" y="167" width="11" height="11" rx="2" class="l0"><title>2025-09-10: 0</title></rect>
<rect x="63" y="180" width="11" height="11" rx="2" class="l0"><title>2025-09-11: 0</title></rect>
<rect x="63" y="193" width="11" height="11" rx="2" class="l0"><title>2025-09-12: 0</title></rect>
<rect x="63" y="206" width="11" height="11" rx="2" class="l0"><title>2025-09-13: 0</title></rect>
<rect x="76" y="128" width="11" height="11" rx="2" class="l0"><title>2025-09-14: 0</title></rect>
<rect x="76" y="141" width="11" height="11" rx="2" class="l0"><title>2025-09-15: 0</title></rect>
<rect x="76" y="154" width="11" height="11" rx="2" class="l0"><title>2025-09-16: 0</title></rect>
<rect x="76" y="167" width="11" height="11" rx="2" class="l0"><title>2025-09-17: 0</title></rect>
<rect x="76" y="180" width="11" height="11" rx="2" class="l0"><title>2025-09-18: 0</title></rect>
<rect x="76" y="193" width="11" height="11" rx="2" class="l0"><title>2025-09-19: 0</title></rect>
<rect x="76" y="206" width="11" height="11" rx="2" class="l0"><title>2025-09-20: 0</title></rect>
<rect x="89" y="128" width="11" height="11" rx="2" class="l0"><title>2025-09-21: 0</title></rect>
<rect x="89" y="141" width="11" height="11" rx="2" class="l0"><title>2025-09-22: 0</title></rect>
<rect x="89" y="154" width="11" height="11" rx="2" class="l0"><title>2025-09-23: 0</title></rect>
<rect x="89" y="167" width="11" height="11" rx="2" class="l0"><title>2025-09-24: 0</title></rect>
<rect x="89" y="180" width="11" height="11" rx="2" class="l0"><title>2025-09-25: 0</title></rect>
<rect x="89" y="193" width="11" height="11" rx="2" class="l0"><title>2025-09-26: 0</title></rect>
<rect x="89" y="206" width="11" height="11" rx="2" class="l0"><title>2025-09-27: 0</title></rect>
<rect x="102" y="128" width="11" height="11" rx="2" class="l0"><title>2025-09-28: 0</title></rect>
<rect x="102" y="141" width="11" height="11" rx="2" class="l0"><title>2025-09-29: 0</title></rect>
<rect x="102" y="154" width="11" height="11" rx="2" class="l0"><title>2025-09-30: 0</title></rect>
<rect x="102" y="167" width="11" height="11" rx="2" class="l0"><title>2025-10-01: 0</title></rect>
<rect x="102" y="180" width="11" height="11" rx="2" class="l0"><title>2025-10-02: 0</title></rect>
<rect x="102" y="193" width="11" height="11" rx="2" class="l0"><title>2025-10-03: 0</title></rect>
<rect x="102" y="206" width="11" height="11" rx="2" class="l0"><title>2025-10-04: 0</title></rect>
<rect x="115" y="128" width="11" height="11" rx="2" class="l0"><title>2025-10-05: 0</title></rect>
<rect x="115" y="141" width="11" height="11" rx="2" class="l0"><title>2025-10-06: 0</title></rect>
<rect x="115" y="154" width="11" height="11" rx="2" class="l0"><title>2025-10-07: 0</title></rect>
<rect x="115" y="167" width="11" height="11" rx="2" class="l0"><title>2025-10-08: 0</title></rect>
<rect x="115" y="180" width="11" height="11" rx="2" class="l0"><title>2025-10-09: 0</title></rect>
<rect x="115" y="193" width="11" height="11" rx="2" class="l0"><title>2025-10-10: 0</title></rect>
<rect x="115" y="206" width="11" height="11" rx="2" class="l0"><title>2025-10-11: 0</title></rect>
<rect x="128" y="128" width="11" height="11" rx="2" class="l0"><title>2025-10-12: 0</title></rect>
<rect x="128" y="141" width="11" height="11" rx="2" class="l0"><title>2025-10-13: 0</title></rect>
<rect x="128" y="154" width="11" height="11" rx="2" class="l0"><title>2025-10-14: 0</title></rect>
<rect x="128" y="167" width="11" height="11" rx="2" class="l0"><title>2025-10-15: 0</title></rect>
<rect x="128" y="180" width="11" height="11" rx="2" class="l0"><title>2025-10-16: 0</title></rect>
<rect x="128" y="193" width="11" height="11" rx="2" class="l0"><title>2025-10-17: 0</title></rect>
<rect x="128" y="206" width="11" height="11" rx="2" class="l0"><title>2025-10-18: 0</title></rect>
<rect x="141" y="128" width="11" height="11" rx="2" class="l0"><title>2025-10-19: 0</title></rect>
<rect x="141" y="141" width="11" height="11" rx="2" class="l0"><title>2025-10-20: 0</title></rect>
<rect x="141" y="154" width="11" height="11" rx="2" class="l0"><title>2025-10-21: 0</title></rect>
<rect x="141" y="167" width="11" height="11" rx="2" class="l0"><title>2025-10-22: 0</title></rect>
<rect x="141" y="180" width="11" height="11" rx="2" class="l0"><title>2025-10-23: 0</title></rect>
<rect x="141" y="193" width="11" height="11" rx="2" class="l0"><title>2025-10-24: 0</title></rect>
<rect x="141" y="206" width="11" height="11" rx="2" class="l0"><title>2025-10-25: 0</title></rect>
<rect x="154" y="128" width="11" height="11" rx="2" class="l0"><title>2025-10-26: 0</title></rect>
<rect x="154" y="141" width="11" height="11" rx="2" class="l0"><title>2025-10-27: 0</title></rect>
<rect x="154" y="154" width="11" height="11" rx="2" class="l0"><title>2025-10-28: 0</title></rect>
<rect x="154" y="167" width="11" height="11" rx="2" class="l0"><title>2025-10-29: 0</title></rect>
<rect x="154" y="180" width="11" height="11" rx="2" class="l0"><title>2025-10-30: 0</title></rect>
<rect x="154" y="193" width="11" height="11" rx="2" class="l0"><title>2025-10-31: 0</title></rect>
<rect x="154" y="206" width="11" height="11" rx="2" class="l0"><title>2025-11-01: 0</title></rect>
<rect x="167" y="128" width="11" height="11" rx="2" class="l0"><title>2025-11-02: 0</title></rect>
<rect x="167" y="141" width="11" height="11" rx="2" class="l0"><title>2025-11-03: 0</title></rect>
<rect x="167" y="154" width="11" height="11" rx="2" class="l0"><title>2025-11-04: 0</title></rect>
<rect x="167" y="167" width="11" height="11" rx="2" class="l0"><title>2025-11-05: 0</title></rect>
<rect x="167" y="180" width="11" height="11" rx="2" class="l0"><title>2025-11-06: 0</title></rect>
<rect x="167" y="193" width="11" height="11" rx="2" class="l0"><title>2025-11-07: 0</title></rect>
<rect x="167" y="206" width="11" height="11" rx="2" class="l0"><title>2025-11-08: 0</title></rect>
<rect x="180" y="128" width="11" height="11" rx="2" class="l0"><title>2025-11-09: 0</title></rect>
<rect x="180" y="141" width="11" height="11" rx="2" class="l0"><title>2025-11-10: 0</title></rect>
<rect x="180" y="154" width="11" height="11" rx="2" class="l0"><title>2025-11-11: 0</title></rect>
<rect x="180" y="167" width="11" height="11" rx="2" class="l0"><title>2025-11-12: 0</title></rect>
<rect x="180" y="180" width="11" height="11" rx="2" class="l0"><title>2025-11-13: 0</title></rect>
<rect x="180" y="193" width="11" height="11" rx="2" class="l0"><title>2025-11-14: 0</title></rect>
<rect x="180" y="206" width="11" height="11" rx="2" class="l0"><title>2025-11-15: 0</title></rect>
<rect x="193" y="128" width="11" height="11" rx="2" class="l0"><title>2025-11-16: 0</title></rect>
<rect x="193" y="141" width="11" height="11" rx="2" class="l0"><title>2025-11-17: 0</title></rect>
<rect x="193" y="154" width="11" height="11" rx="2" class="l0"><title>2025-11-18: 0</title></rect>
<rect x="193" y="167" width="11" height="11" rx="2" class="l0"><title>2025-11-19: 0</title></rect>
<rect x="193" y="180" width="11" height="11" rx="2" class="l0"><title>2025-11-20: 0</title></rect>
<rect x="193" y="193" width="11" height="11" rx="2" class="l0"><title>2025-11-21: 0</title></rect>
<rect x="193" y="206" width="11" height="11" rx="2" class="l0"><title>2025-11-22: 0</title></rect>
<rect x="206" y="128" width="11" height="11" rx="2" class="l0"><title>2025-11-23: 0</title></rect>
<rect x="206" y="141" width="11" height="11" rx="2" class="l0"><title>2025-11-24: 0</title></rect>
<rect x="206" y="154" width="11" height="11" rx="2" class="l0"><title>2025-11-25: 0</title></rect>
<rect x="206" y="167" width="11" height="11" rx="2" class="l0"><title>2025-11-26: 0</title></rect>
<rect x="206" y="180" width="11" height="11" rx="2" class="l0"><title>2025-11-27: 0</title></rect>
<rect x="206" y="193" width="11" height="11" rx="2" class="l0"><title>2025-11-28: 0</title></rect>
<rect x="206" y="206" width="11" height="11" rx="2" class="l0"><title>2025-11-29: 0</title></rect>
<rect x="219" y="128" width="11" height="11" rx="2" class="l0"><title>2025-11-30: 0</title></rect>
<rect x="219" y="141" width="11" height="11" rx="2" class="l0"><title>2025-12-01: 0</title></rect>
<rect x="219" y="154" width="11" height="11" rx="2" class="l0"><title>2025-12-02: 0</title></rect>
<rect x="219" y="167" width="11" height="11" rx="2" class="l0"><title>2025-12-03: 0</title></rect>
<rect x="219" y="180" width="11" height="11" rx="2" class="l0"><title>2025-12-04: 0</title></rect>
<rect x="219" y="193" width="11" height="11" rx="2" class="l0"><title>2025-12-05: 0</title></rect>
<rect x="219" y="206" width="11" height="11" rx="2" class="l0"><title>2025-12-06: 0</title></rect>
<rect x="232" y="128" width="11" height="11" rx="2" class="l0"><title>2025-12-07: 0</title></rect>
<rect x="232" y="141" width="11" height="11" rx="2" class="l0"><title>2025-12-08: 0</title></rect>
<rect x="232" y="154" width="11" height="11" rx="2" class="l0"><title>2025-12-09: 0</title></rect>
<rect x="232" y="167" width="11" height="11" rx="2" class="l0"><title>2025-12-10: 0</title></rect>
<rect x="232" y="180" width="11" height="11" rx="2" class="l0"><title>2025-12-11: 0</title></rect>
<rect x="232" y="193" width="11" height="11" rx="2" class="l0"><title>2025-12-12: 0</title></rect>
<rect x="232" y="206" width="11" height="11" rx="2" class="l0"><title>2025-12-13: 0</title></rect>
<rect x="245" y="128" width="11" height="11" rx="2" class="l0"><title>2025-12-14: 0</title></rect>
<rect x="245" y="141" width="11" height="11" rx="2" class="l0"><title>2025-12-15: 0</title></rect>
<rect x="245" y="154" width="11" height="11" rx="2" class="l0"><title>2025-12-16: 0</title></rect>
<rect x="245" y="167" width="11" height="11" rx="2" class="l0"><title>2025-12-17: 0</title></rect>
<rect x="245" y="180" width="11" height="11" rx="2" class="l0"><title>2025-12-18: 0</title></rect>
<rect x="245" y="193" width="11" height="11" rx="2" class="l0"><title>2025-12-19: 0</title></rect>
<rect x="245" y="206" width="11" height="11" rx="2" class="l0"><title>2025-12-20: 0</title></rect>
<rect x="258" y="128" width="11" height="11" rx="2" class="l0"><title>2025-12-21: 0</title></rect>
<rect x="258" y="141" width="11" height="11" rx="2" class="l0"><title>2025-12-22: 0</title></rect>
<rect x="258" y="154" width="11" height="11" rx="2" class="l0"><title>2025-12-23: 0</title></rect>
<rect x="258" y="167" width="11" height="11" rx="2" class="l0"><title>2025-12-24: 0</title></rect>
<rect x="258" y="180" width="11" height="11" rx="2" class="l0"><title>2025-12-25: 0</title></rect>
<rect x="258" y="193" width="11" height="11" rx="2" class="l0"><title>2025-12-26: 0</title></rect>
<rect x="258" y="206" width="11" height="11" rx="2" class="l0"><title>2025-12-27: 0</title></rect>
<rect x="271" y="128" width="11" height="11" rx="2" class="l0"><title>2025-12-28: 0</title></rect>
<rect x="271" y="141" width="11" height="11" rx="2" class="l0"><title>2025-12-29: 0</title></rect>
<rect x="271" y="154" width="11" height="11" rx="2" class="l0"><title>2025-12-30: 0</title></rect>
<rect x="271" y="167" width="11" height="11" rx="2" class="l0"><title>2025-12-31: 0</title></rect>
<rect x="271" y="180" width="11" height="11" rx="2" class="l0"><title>2026-01-01: 0</title></rect>
<rect x="271" y="193" width="11" height="11" rx="2" class="l0"><title>2026-01-02: 0</title></rect>
<rect x="271" y="206" width="11" height="11" rx="2" class="l0"><title>2026-01-03: 0</title></rect>
<rect x="284" y="128" width="11" height="11" rx="2" class="l0"><title>2026-01-04: 0</title></rect>
<rect x="284" y="141" width="11" height="11" rx="2" class="l0"><title>2026-01-05: 0</title></rect>
<rect x="284" y="154" width="11" height="11" rx="2" class="l0"><title>2026-01-06: 0</title></rect>
<rect x="284" y="167" width="11" height="11" rx="2" class="l0"><title>2026-01-07: 0</title></rect>
<rect x="284" y="180" width="11" height="11" rx="2" class="l0"><title>2026-01-08: 0</title></rect>
<rect x="284" y="193" width="11" height="11" rx="2" class="l0"><title>2026-01-09: 0</title></rect>
<rect x="284" y="206" width="11" height="11" rx="2" class="l0"><title>2026-01-10: 0</title></rect>
<rect x="297" y="128" width="11" height="11" rx="2" class="l0"><title>2026-01-11: 0</title></rect>
<rect x="297" y="141" width="11" height="11" rx="2" class="l0"><title>2026-01-12: 0</title></rect>
<rect x="297" y="154" width="11" height="11" rx="2" class="l0"><title>2026-01-13: 0</title></rect>
<rect x="297" y="167" width="11" height="11" rx="2" class="l0"><title>2026-01-14: 0</title></rect>
<rect x="297" y="180" width="11" height="11" rx="2" class="l0"><title>2026-01-15: 0</title></rect>
<rect x="297" y="193" width="11" height="11" rx="2" class="l0"><title>2026-01-16: 0</title></rect>
<rect x="297" y="206" width="11" height="11" rx="2" class="l0"><title>2026-01-17: 0</title></rect>
<rect x="310" y="128" width="11" height="11" rx="2" class="l0"><title>2026-01-18: 0</title></rect>
<rect x="310" y="141" width="11" height="11" rx="2" class="l0"><title>2026-01-19: 0</title></rect>
<rect x="310" y="154" width="11" height="11" rx="2" class="l0"><title>2026-01-20: 0</title></rect>
<rect x="310" y="167" width="11" height="11" rx="2" class="l0"><title>2026-01-21: 0</title></rect>
<rect x="310" y="180" width="11" height="11" rx="2" class="l0"><title>2026-01-22: 0</title></rect>
<rect x="310" y="193" width="11" height="11" rx="2" class="l0"><title>2026-01-23: 0</title></rect>
<rect x="310" y="206" width="11" height="11" rx="2" class="l0"><title>2026-01-24: 0</title></rect>
<rect x="323" y="128" width="11" height="11" rx="2" class="l0"><title>2026-01-25: 0</title></rect>
<rect x="323" y="141" width="11" height="11" rx="2" class="l0"><title>2026-01-26: 0</title></rect>
<rect x="323" y="154" width="11" height="11" rx="2" class="l0"><title>2026-01-27: 0</title></rect>
<rect x="323" y="167" width="11" height="11" rx="2" class="l0"><title>2026-01-28: 0</title></rect>
<rect x="323" y="180" width="11" height="11" rx="2" class="l0"><title>2026-01-29: 0</title></rect>
<rect x="323" y="193" width="11" height="11" rx="2" class="l0"><title>2026-01-30: 0</title></rect>
<rect x="323" y="206" width="11" height="11" rx="2" class="l0"><title>2026-01-31: 0</title></rect>
<rect x="336" y="128" width="11" height="11" rx="2" class="l0"><title>2026-02-01: 0</title></rect>
<rect x="336" y="141" width="11" height="11" rx="2" class="l0"><title>2026-02-02: 0</title></rect>
<rect x="336" y="154" width="11" height="11" rx="2" class="l0"><title>2026-02-03: 0</title></rect>
<rect x="336" y="167" width="11" height="11" rx="2" class="l0"><title>2026-02-04: 0</title></rect>
<rect x="336" y="180" width="11" height="11" rx="2" class="l0"><title>2026-02-05: 0</title></rect>
<rect x="336" y="193" width="11" height="11" rx="2" class="l0"><title>2026-02-06: 0</title></rect>
<rect x="336" y="206" width="11" height="11" rx="2" class="l0"><title>2026-02-07: 0</title></rect>
<rect x="349" y="128" width="11" height="11" rx="2" class="l0"><title>2026-02-08: 0</title></rect>
<rect x="349" y="141" width="11" height="11" rx="2" class="l0"><title>2026-02-09: 0</title></rect>
<rect x="349" y="154" width="11" height="11" rx="2" class="l0"><title>2026-02-10: 0</title></rect>
<rect x="349" y="167" width="11" height="11" rx="2" class="l0"><title>2026-02-11: 0</title></rect>
<rect x="349" y="180" width="11" height="11" rx="2" class="l0"><title>2026-02-12: 0</title></rect>
<rect x="349" y="193" width="11" height="11" rx="2" class="l0"><title>2026-02-13: 0</title></rect>
<rect x="349" y="206" width="11" height="11" rx="2" class="l0"><title>2026-02-14: 0</title></rect>
<rect x="362" y="128" width="11" height="11" rx="2" class="l0"><title>2026-02-15: 0</title></rect>
<rect x="362" y="141" width="11" height="11" rx="2" class="l0"><title>2026-02-16: 0</title></rect>
<rect x="362" y="154" width="11" height="11" rx="2" class="l0"><title>2026-02-17: 0</title></rect>
<rect x="362" y="167" width="11" height="11" rx="2" class="l0"><title>2026-02-18: 0</title></rect>
<rect x="362" y="180" width="11" height="11" rx="2" class="l0"><title>2026-02-19: 0</title></rect>
<rect x="362" y="193" width="11" height="11" rx="2" class="l0"><title>2026-02-20: 0</title></rect>
<rect x="362" y="206" width="11" height="11" rx="2" class="l0"><title>2026-02-21: 0</title></rect>
<rect x="375" y="128" width="11" height="11" rx="2" class="l0"><title>2026-02-22: 0</title></rect>
<rect x="375" y="141" width="11" height="11" rx="2" class="l0"><title>2026-02-23: 0</title></rect>
<rect x="375" y="154" width="11" height="11" rx="2" class="l0"><title>2026-02-24: 0</title></rect>
<rect x="375" y="167" width="11" height="11" rx="2" class="l0"><title>2026-02-25: 0</title></rect>
<rect x="375" y="180" width="11" height="11" rx="2" class="l0"><title>2026-02-26: 0</title></rect>
<rect x="375" y="193" width="11" height="11" rx="2" class="l0"><title>2026-02-27: 0</title></rect>
<rect x="375" y="206" width="11" height="11" rx="2" class="l0"><title>2026-02-28: 0</title></rect>
<rect x="388" y="128" width="11" height="11" rx="2" class="l0"><title>2026-03-01: 0</title></rect>
<rect x="388" y="141" width="11" height="11" rx="2" class="l0"><title>2026-03-02: 0</title></rect>
<rect x="388" y="154" width="11" height="11" rx="2" class="l0"><title>2026-03-03: 0</title></rect>
<rect x="388" y="167" width="11" height="11" rx="2" class="l0"><title>2026-03-04: 0</title></rect>
<rect x="388" y="180" width="11" height="11" rx="2" class="l0"><title>2026-03-05: 0</title></rect>
<rect x="388" y="193" width="11" height="11" rx="2" class="l0"><title>2026-03-06: 0</title></rect>
<rect x="388" y="206" width="11" height="11" rx="2" class="l0"><title>2026-03-07: 0</title></rect>
<rect x="401" y="128" width="11" height="11" rx="2" class="l0"><title>2026-03-08: 0</title></rect>
<rect x="401" y="141" width="11" height="11" rx="2" class="l0"><title>2026-03-09: 0</title></rect>
<rect x="401" y="154" width="11" height="11" rx="2" class="l0"><title>2026-03-10: 0</title></rect>
<rect x="401" y="167" width="11" height="11" rx="2" class="l0"><title>2026-03-11: 0</title></rect>
<rect x="401" y="180" width="11" height="11" rx="2" class="l0"><title>2026-03-12: 0</title></rect>
<rect x="401" y="193" width="11" height="11" rx="2" class="l0"><title>2026-03-13: 0</title></rect>
<rect x="401" y="206" width="11" height="11" rx="2" class="l0"><title>2026-03-14: 0</title></rect>
<rect x="414" y="128" width="11" height="11" rx="2" class="l0"><title>2026-03-15: 0</title></rect>
<rect x="414" y="141" width="11" height="11" rx="2" class="l0"><title>2026-03-16: 0</title></rect>
<rect x="414" y="154" width="11" height="11" rx="2" class="l0"><title>2026-03-17: 0</title></rect>
<rect x="414" y="167" width="11" height="11" rx="2" class="l0"><title>2026-03-18: 0</title></rect>
<rect x="414" y="180" width="11" height="11" rx="2" class="l0"><title>2026-03-19: 0</title></rect>
<rect x="414" y="193" width="11" height="11" rx="2" class="l0"><title>2026-03-20: 0</title></rect>
<rect x="414" y="206" width="11" height="11" rx="2" class="l0"><title>2026-03-21: 0</title></rect>
<rect x="427" y="128" width="11" height="11" rx="2" class="l0"><title>2026-03-22: 0</title></rect>
<rect x="427" y="141" width="11" height="11" rx="2" class="l0"><title>2026-03-23: 0</title></rect>
<rect x="427" y="154" width="11" height="11" rx="2" class="l0"><title>2026-03-24: 0</title></rect>
<rect x="427" y="167" width="11" height="11" rx="2" class="l0"><title>2026-03-25: 0</title></rect>
<rect x="427" y="180" width="11" height="11" rx="2" class="l0"><title>2026-03-26: 0</title></rect>
<rect x="427" y="193" width="11" height="11" rx="2" class="l0"><title>2026-03-27: 0</title></rect>
<rect x="427" y="206" width="11" height="11" rx="2" class="l0"><title>2026-03-28: 0</title></rect>
<rect x="440" y="128" width="11" height="11" rx="2" class="l0"><title>2026-03-29: 0</title></rect>
<rect x="440" y="141" width="11" height="11" rx="2" class="l0"><title>2026-03-30: 0</title></rect>
<rect x="440" y="154" width="11" height="11" rx="2" class="l0"><title>2026-03-31: 0</title></rect>
<rect x="440" y="167" width="11" height="11" rx="2" class="l0"><title>2026-04-01: 0</title></rect>
<rect x="440" y="180" width="11" height="11" rx="2" class="l0"><title>2026-04-02: 0</title></rect>
<rect x="440" y="193" width="11" height="11" rx="2" class="l0"><title>2026-04-03: 0</title></rect>
<rect x="440" y="206" width="11" height="11" rx="2" class="l0"><title>2026-04-04: 0</title></rect>
<rect x="453" y="128" width="11" height="11" rx="2" class="l0"><title>2026-04-05: 0</title></rect>
<rect x="453" y="141" width="11" height="11" rx="2" class="l0"><title>2026-04-06: 0</title></rect>
<rect x="453" y="154" width="11" height="11" rx="2" class="l0"><title>2026-04-07: 0</title></rect>
<rect x="453" y="167" width="11" height="11" rx="2" class="l0"><title>2026-04-08: 0</title></rect>
<rect x="453" y="180" width="11" height="11" rx="2" class="l0"><title>2026-04-09: 0</title></rect>
<rect x="453" y="193" width="11" height="11" rx="2" class="l0"><title>2026-04-10: 0</title></rect>
<rect x="453" y="206" width="11" height="11" rx="2" class="l0"><title>2026-04-11: 0</title></rect>
<rect x="466" y="128" width="11" height="11" rx="2" class="l0"><title>2026-04-12: 0</title></rect>
<rect x="466" y="141" width="11" height="11" rx="2" class="l0"><title>2026-04-13: 0</title></rect>
<rect x="466" y="154" width="11" height="11" rx="2" class="l0"><title>2026-04-14: 0</title></rect>
<rect x="466" y="167" width="11" height="11" rx="2" class="l0"><title>2026-04-15: 0</title></rect>
<rect x="466" y="180" width="11" height="11" rx="2" class="l0"><title>2026-04-16: 0</title></rect>
<rect x="466" y="193" width="11" height="11" rx="2" class="l0"><title>2026-04-17: 0</title></rect>
<rect x="466" y="206" width="11" height="11" rx="2" class="l0"><title>2026-04-18: 0</title></rect>
<rect x="479" y="128" width="11" height="11" rx="2" class="l0"><title>2026-04-19: 0</title></rect>
<rect x="479" y="141" width="11" height="11" rx="2" class="l0"><title>2026-04-20: 0</title></rect>
<rect x="479" y="154" width="11" height="11" rx="2" class="l0"><title>2026-04-21: 0</title></rect>
<rect x="479" y="167" width="11" height="11" rx="2" class="l0"><title>2026-04-22: 0</title></rect>
<rect x="479" y="180" width="11" height="11" rx="2" class="l0"><title>2026-04-23: 0</title></rect>
<rect x="479" y="193" width="11" height="11" rx="2" class="l0"><title>2026-04-24: 0</title></rect>
<rect x="479" y="206" width="11" height="11" rx="2" class="l0"><title>2026-04-25: 0</title></rect>
<rect x="492" y="128" width="11" height="11" rx="2" class="l0"><title>2026-04-26: 0</title></rect>
<rect x="492" y="141" width="11" height="11" rx="2" class="l0"><title>2026-04-27: 0</title></rect>
<rect x="492" y="154" width="11" height="11" rx="2" class="l0"><title>2026-04-28: 0</title></rect>
<rect x="492" y="167" width="11" height="11" rx="2" class="l0"><title>2026-04-29: 0</title></rect>
<rect x="492" y="180" width="11" height="11" rx="2" class="l0"><title>2026-04-30: 0</title></rect>
<rect x="492" y="193" width="11" height="11" rx="2" class="l0"><title>2026-05-01: 0</title></rect>
<rect x="492" y="206" width="11" height="11" rx="2" class="l0"><title>2026-05-02: 0</title></rect>
<rect x="505" y="128" width="11" height="11" rx="2" class="l0"><title>2026-05-03: 0</title></rect>
<rect x="505" y="141" width="11" height="11" rx="2" class="l0"><title>2026-05-04: 0</title></rect>
<rect x="505" y="154" width="11" height="11" rx="2" class="l0"><title>2026-05-05: 0</title></rect>
<rect x="505" y="167" width="11" height="11" rx="2" class="l0"><title>2026-05-06: 0</title></rect>
<rect x="505" y="180" width="11" height="11" rx="2" class="l0"><title>2026-05-07: 0</title></rect>
<rect x="505" y="193" width="11" height="11" rx="2" class="l0"><title>2026-05-08: 0</title></rect>
<rect x="505" y="206" width="11" height="11" rx="2" class="l0"><title>2026-05-09: 0</title></rect>
<rect x="518" y="128" width="11" height="11" rx="2" class="l1"><title>2026-05-10: 3</title></rect>
<rect x="518" y="141" width="11" height="11" rx="2" class="l0"><title>2026-05-11: 0</title></rect>
<rect x="518" y="154" width="11" height="11" rx="2" class="l0"><title>2026-05-12: 0</title></rect>
<rect x="518" y="167" width="11" height="11" rx="2" class="l0"><title>2026-05-13: 0</title></rect>
<rect x="518" y="180" width="11" height="11" rx="2" class="l0"><title>2026-05-14: 0</title></rect>
<rect x="518" y="193" width="11" height="11" rx="2" class="l0"><title>2026-05-15: 0</title></rect>
<rect x="518" y="206" width="11" height="11" rx="2" class="l0"><title>2026-05-16: 0</title></rect>
<rect x="531" y="128" width="11" height="11" rx="2" class="l0"><title>2026-05-17: 0</title></rect>
<rect x="531" y="141" width="11" height="11" rx="2" class="l0"><title>2026-05-18: 0</title></rect>
<rect x="531" y="154" width="11" height="11" rx="2" class="l0"><title>2026-05-19: 0</title></rect>
<rect x="531" y="167" width="11" height="11" rx="2" class="l0"><title>2026-05-20: 0</title></rect>
<rect x="531" y="180" width="11" height="11" rx="2" class="l0"><title>2026-05-21: 0</title></rect>
<rect x="531" y="193" width="11" height="11" rx="2" class="l0"><title>2026-05-22: 0</title></rect>
<rect x="531" y="206" width="11" height="11" rx="2" class="l0"><title>2026-05-23: 0</title></rect>
<rect x="544" y="128" width="11" height="11" rx="2" class="l0"><title>2026-05-24: 0</title></rect>
<rect x="544" y="141" width="11" height="11" rx="2" class="l0"><title>2026-05-25: 0</title></rect>
<rect x="544" y="154" width="11" height="11" rx="2" class="l0"><title>2026-05-26: 0</title></rect>
<rect x="544" y="167" width="11" height="11" rx="2" class="l0"><title>2026-05-27: 0</title></rect>
<rect x="544" y="180" width="11" height="11" rx="2" class="l0"><title>2026-05-28: 0</title></rect>
<rect x="544" y="193" width="11" height="11" rx="2" class="l0"><title>2026-05-29: 0</title></rect>
<rect x="544" y="206" width="11" height="11" rx="2" class="l0"><title>2026-05-30: 0</title></rect>
<rect x="557" y="128" width="11" height="11" rx="2" class="l0"><title>2026-05-31: 0</title></rect>
<rect x="557" y="141" width="11" height="11" rx="2" class="l0"><title>2026-06-01: 0</title></rect>
<rect x="557" y="154" width="11" height="11" rx="2" class="l0"><title>2026-06-02: 0</title></rect>
<rect x="557" y="167" width="11" height="11" rx="2" class="l0"><title>2026-06-03: 0</title></rect>
<rect x="557" y="180" width="11" height="11" rx="2" class="l0"><title>2026-06-04: 0</title></rect>
<rect x="557" y="193" width="11" height="11" rx="2" class="l0"><title>2026-06-05: 0</title></rect>
<rect x="557" y="206" width="11" height="11" rx="2" class="l0"><title>2026-06-06: 0</title></rect>
<rect x="570" y="128" width="11" height="11" rx="2" class="l0"><title>2026-06-07: 0</title></rect>
<rect x="570" y="141" width="11" height="11" rx="2" class="l0"><title>2026-06-08: 0</title></rect>
<rect x="570" y="154" width="11" height="11" rx="2" class="l0"><title>2026-06-09: 0</title></rect>
<rect x="570" y="167" width="11" height="11" rx="2" class="l0"><title>2026-06-10: 0</title></rect>
<rect x="570" y="180" width="11" height="11" rx="2" class="l0"><title>2026-06-11: 0</title></rect>
<rect x="570" y="193" width="11" height="11" rx="2" class="l0"><title>2026-06-12: 0</title></rect>
<rect x="570" y="206" width="11" height="11" rx="2" class="l0"><title>2026-06-13: 0</title></rect>
<rect x="583" y="128" width="11" height="11" rx="2" class="l0"><title>2026-06-14: 0</title></rect>
<rect x="583" y="141" width="11" height="11" rx="2" class="l0"><title>2026-06-15: 0</title></rect>
<rect x="583" y="154" width="11" height="11" rx="2" class="l0"><title>2026-06-16: 0</title></rect>
<rect x="583" y="167" width="11" height="11" rx="2" class="l0"><title>2026-06-17: 0</title></rect>
<rect x="583" y="180" width="11" height="11" rx="2" class="l0"><title>2026-06-18: 0</title></rect>
<rect x="583" y="193" width="11" height="11" rx="2" class="l0"><title>2026-06-19: 0</title></rect>
<rect x="583" y="206" width="11" height="11" rx="2" class="l0"><title>2026-06-20: 0</title></rect>
<rect x="596" y="128" width="11" height="11" rx="2" class="l0"><title>2026-06-21: 0</title></rect>
<rect x="596" y="141" width="11" height="11" rx="2" class="l0"><title>2026-06-22: 0</title></rect>
<rect x="596" y="154" width="11" height="11" rx="2" class="l0"><title>2026-06-23: 0</title></rect>
<rect x="596" y="167" width="11" height="11" rx="2" class="l0"><title>2026-06-24: 0</title></rect>
<rect x="596" y="180" width="11" height="11" rx="2" class="l0"><title>2026-06-25: 0</title></rect>
<rect x="596" y="193" width="11" height="11" rx="2" class="l1"><title>2026-06-26: 7</title></rect>
<rect x="596" y="206" width="11" height="11" rx="2" class="l0"><title>2026-06-27: 0</title></rect>
<rect x="609" y="128" width="11" height="11" rx="2" class="l2"><title>2026-06-28: 19</title></rect>
<rect x="609" y="141" width="11" height="11" rx="2" class="l1"><title>2026-06-29: 10</title></rect>
<rect x="609" y="154" width="11" height="11" rx="2" class="l3"><title>2026-06-30: 35</title></rect>
<rect x="609" y="167" width="11" height="11" rx="2" class="l4"><title>2026-07-01: 43</title></rect>
<rect x="609" y="180" width="11" height="11" rx="2" class="l1"><title>2026-07-02: 4</title></rect>
<rect x="609" y="193" width="11" height="11" rx="2" class="l0"><title>2026-07-03: 0</title></rect>
<rect x="609" y="206" width="11" height="11" rx="2" class="l0"><title>2026-07-04: 0</title></rect>
<rect x="622" y="128" width="11" height="11" rx="2" class="l0"><title>2026-07-05: 0</title></rect>
<rect x="622" y="141" width="11" height="11" rx="2" class="l0"><title>2026-07-06: 0</title></rect>
<rect x="622" y="154" width="11" height="11" rx="2" class="l0"><title>2026-07-07: 0</title></rect>
<rect x="622" y="167" width="11" height="11" rx="2" class="l0"><title>2026-07-08: 0</title></rect>
<rect x="622" y="180" width="11" height="11" rx="2" class="l0"><title>2026-07-09: 0</title></rect>
<rect x="622" y="193" width="11" height="11" rx="2" class="l0"><title>2026-07-10: 0</title></rect>
<rect x="622" y="206" width="11" height="11" rx="2" class="l2"><title>2026-07-11: 16</title></rect>
<rect x="635" y="128" width="11" height="11" rx="2" class="l3"><title>2026-07-12: 40</title></rect>
<rect x="635" y="141" width="11" height="11" rx="2" class="l1"><title>2026-07-13: 14</title></rect>
<rect x="635" y="154" width="11" height="11" rx="2" class="l1"><title>2026-07-14: 2</title></rect>
<rect x="635" y="167" width="11" height="11" rx="2" class="l1"><title>2026-07-15: 3</title></rect>
<rect x="635" y="180" width="11" height="11" rx="2" class="l0"><title>2026-07-16: 0</title></rect>
<rect x="635" y="193" width="11" height="11" rx="2" class="l1"><title>2026-07-17: 13</title></rect>
<rect x="635" y="206" width="11" height="11" rx="2" class="l2"><title>2026-07-18: 24</title></rect>
<rect x="648" y="128" width="11" height="11" rx="2" class="l1"><title>2026-07-19: 2</title></rect>
<rect x="648" y="141" width="11" height="11" rx="2" class="l1"><title>2026-07-20: 1</title></rect>
<rect x="648" y="154" width="11" height="11" rx="2" class="l1"><title>2026-07-21: 8</title></rect>
<rect x="648" y="167" width="11" height="11" rx="2" class="l1"><title>2026-07-22: 4</title></rect>
<rect x="648" y="180" width="11" height="11" rx="2" class="l1"><title>2026-07-23: 9</title></rect>
<rect x="648" y="193" width="11" height="11" rx="2" class="l2"><title>2026-07-24: 24</title></rect>
<rect x="648" y="206" width="11" height="11" rx="2" class="l0"><title>2026-07-25: 0</title></rect>
<rect x="661" y="128" width="11" height="11" rx="2" class="l0"><title>2026-07-26: 0</title></rect>
<rect x="661" y="141" width="11" height="11" rx="2" class="l1"><title>2026-07-27: 9</title></rect>
<rect x="661" y="154" width="11" height="11" rx="2" class="l2"><title>2026-07-28: 21</title></rect>
<rect x="661" y="167" width="11" height="11" rx="2" class="l1"><title>2026-07-29: 5</title></rect>
<rect x="661" y="180" width="11" height="11" rx="2" class="l1"><title>2026-07-30: 3</title></rect>
<rect x="661" y="193" width="11" height="11" rx="2" class="l1"><title>2026-07-31: 1</title></rect>
<rect x="661" y="206" width="11" height="11" rx="2" class="l1"><title>2026-08-01: 11</title></rect>
<rect x="674" y="128" width="11" height="11" rx="2" class="l1"><title>2026-08-02: 6</title></rect>
<rect x="674" y="141" width="11" height="11" rx="2" class="l1"><title>2026-08-03: 5</title></rect>
<rect x="674" y="154" width="11" height="11" rx="2" class="l1"><title>2026-08-04: 4</title></rect>
<rect x="674" y="167" width="11" height="11" rx="2" class="l1"><title>2026-08-05: 13</title></rect>
<rect x="674" y="180" width="11" height="11" rx="2" class="l1"><title>2026-08-06: 3</title></rect>
<rect x="674" y="193" width="11" height="11" rx="2" class="l0"><title>2026-08-07: 0</title></rect>
<rect x="674" y="206" width="11" height="11" rx="2" class="l1"><title>2026-08-08: 1</title></rect>
<rect x="687" y="128" width="11" height="11" rx="2" class="l1"><title>2026-08-09: 10</title></rect>
<rect x="687" y="141" width="11" height="11" rx="2" class="l1"><title>2026-08-10: 2</title></rect>
<rect x="687" y="154" width="11" height="11" rx="2" class="l3"><title>2026-08-11: 30</title></rect>
<rect x="687" y="167" width="11" height="11" rx="2" class="l1"><title>2026-08-12: 1</title></rect>
<rect x="687" y="180" width="11" height="11" rx="2" class="l0"><title>2026-08-13: 0</title></rect>
<rect x="687" y="193" width="11" height="11" rx="2" class="l0"><title>2026-08-14: 0</title></rect>
<rect x="687" y="206" width="11" height="11" rx="2" class="l0"><title>2026-08-15: 0</title></rect>
<rect x="700" y="128" width="11" height="11" rx="2" class="l0"><title>2026-08-16: 0</title></rect>
<text x="24" y="239" class="sub">languages by bytes written</text>
<rect x="24.0" y="251" width="202.0" height="9" rx="4.5" fill="#3572A5"/>
<rect x="228.0" y="251" width="168.1" height="9" rx="4.5" fill="#F05138"/>
<rect x="398.0" y="251" width="129.6" height="9" rx="4.5" fill="#3178c6"/>
<rect x="529.6" y="251" width="113.2" height="9" rx="4.5" fill="#f1e05a"/>
<rect x="644.9" y="251" width="90.0" height="9" rx="4.5" fill="#e34c26"/>
<rect x="736.9" y="251" width="57.1" height="9" rx="4.5" fill="#663399"/>
<circle cx="28" cy="283" r="4" fill="#3572A5"/><text x="38" y="287" class="lang">Python 26%</text>
<circle cx="156" cy="283" r="4" fill="#F05138"/><text x="166" y="287" class="lang">Swift 22%</text>
<circle cx="284" cy="283" r="4" fill="#3178c6"/><text x="294" y="287" class="lang">TypeScript 17%</text>
<circle cx="412" cy="283" r="4" fill="#f1e05a"/><text x="422" y="287" class="lang">JavaScript 15%</text>
<circle cx="540" cy="283" r="4" fill="#e34c26"/><text x="550" y="287" class="lang">HTML 12%</text>
<circle cx="668" cy="283" r="4" fill="#663399"/><text x="678" y="287" class="lang">CSS 8%</text>
<text x="796" y="34" class="key" text-anchor="end">UPDATED 2026-08-16</text>
</svg>
